<svg width="156" height="87" viewBox="0 0 156 87" fill="none" xmlns="http://www.w3.org/2000/svg">
<path d="M42.8604 40.35C40.8604 40.35 39.127 39.9333 37.6604 39.1C36.1937 38.2667 35.0604 37.1667 34.2604 35.8C33.4937 34.4 33.1104 32.8833 33.1104 31.25C33.1104 29.7167 33.4437 28.2167 34.1104 26.75C34.777 25.2833 35.6937 23.95 36.8604 22.75C38.0604 21.5167 39.4437 20.5167 41.0104 19.75C42.577 18.95 44.2604 18.4667 46.0604 18.3C44.7604 17.2333 43.7937 16 43.1604 14.6C42.5604 13.2 42.2604 11.8 42.2604 10.4C42.2604 8.63333 42.6937 6.96667 43.5604 5.4C44.4604 3.8 45.6937 2.51667 47.2604 1.55C48.827 0.549998 50.5937 0.0499979 52.5604 0.0499979C54.427 0.0499979 55.8437 0.516665 56.8104 1.45C57.777 2.38333 58.2604 3.71667 58.2604 5.45C58.2604 6.68333 58.0437 7.88333 57.6104 9.05C57.177 10.2167 56.6437 11.1667 56.0104 11.9C55.4104 12.6333 54.827 13 54.2604 13C53.8937 13 53.5437 12.85 53.2104 12.55C52.877 12.2167 52.6104 11.8333 52.4104 11.4C53.577 10.3667 54.5604 9.28333 55.3604 8.15C56.1937 6.98333 56.6104 5.75 56.6104 4.45C56.6104 3.41666 56.3104 2.61666 55.7104 2.05C55.1104 1.48333 54.227 1.2 53.0604 1.2C51.527 1.2 50.227 1.66666 49.1604 2.6C48.0937 3.5 47.277 4.71667 46.7104 6.25C46.177 7.75 45.9104 9.41667 45.9104 11.25C45.9104 12.45 46.0937 13.75 46.4604 15.15C46.827 16.55 47.6104 17.7667 48.8104 18.8C46.577 19.1667 44.627 20.0167 42.9604 21.35C41.327 22.6833 40.0437 24.25 39.1104 26.05C38.2104 27.85 37.7604 29.6333 37.7604 31.4C37.7604 32.5 37.9604 33.6167 38.3604 34.75C38.7937 35.85 39.477 36.7667 40.4104 37.5C41.3437 38.2667 42.5937 38.65 44.1604 38.65C45.927 38.65 47.677 38.15 49.4104 37.15C51.177 36.15 52.7937 34.8333 54.2604 33.2C55.727 31.5667 56.8937 29.8 57.7604 27.9L58.4604 28.4C57.2937 30.6667 55.927 32.7 54.3604 34.5C52.7937 36.3 51.0437 37.7167 49.1104 38.75C47.177 39.8167 45.0937 40.35 42.8604 40.35ZM57.9127 40.35C58.1127 39.8833 58.6627 38.65 59.5627 36.65C60.4627 34.6833 61.6294 32.1167 63.0627 28.95C64.5294 25.75 66.1627 22.1333 67.9627 18.1C69.796 14.0333 71.7294 9.73333 73.7627 5.2C73.8627 4.96666 73.9627 4.66667 74.0627 4.3C74.196 3.9 74.2627 3.51667 74.2627 3.15C74.2627 2.78333 74.146 2.48333 73.9127 2.25C73.7127 1.98333 73.2627 1.85 72.5627 1.85C71.1627 1.85 69.996 2.33333 69.0627 3.3C68.1627 4.23333 67.4794 5.4 67.0127 6.8C66.5794 8.2 66.3627 9.58333 66.3627 10.95C66.3627 11.2833 66.3627 11.5667 66.3627 11.8C66.396 12.0333 66.4294 12.2667 66.4627 12.5C65.8294 12.5 65.3127 12.2833 64.9127 11.85C64.546 11.3833 64.2627 10.8333 64.0627 10.2C63.896 9.53333 63.8127 8.93333 63.8127 8.4C63.8127 7.3 64.1127 6.25 64.7127 5.25C65.3127 4.25 66.0794 3.35 67.0127 2.55C67.9794 1.75 69.0294 1.13333 70.1627 0.699998C71.3294 0.233332 72.4627 -1.43051e-06 73.5627 -1.43051e-06C74.6627 -1.43051e-06 75.5794 0.316665 76.3127 0.949998C77.0794 1.55 77.646 2.65 78.0127 4.25C78.4127 5.85 78.6127 8.16667 78.6127 11.2C78.6127 13.2667 78.5294 15.4667 78.3627 17.8C78.2294 20.1333 78.0794 22.4333 77.9127 24.7C77.746 26.9667 77.6294 29.0333 77.5627 30.9C78.096 28.8667 78.846 26.7 79.8127 24.4C80.8127 22.1 81.896 19.8167 83.0627 17.55C84.2627 15.25 85.446 13.1 86.6127 11.1C87.7794 9.1 88.8294 7.36666 89.7627 5.9C90.696 4.43333 91.3794 3.36667 91.8127 2.7C92.2794 2.03333 92.6794 1.53333 93.0127 1.2C93.346 0.833332 93.7794 0.649999 94.3127 0.649999C94.7794 0.649999 95.3127 0.766665 95.9127 0.999998C95.6794 1.6 95.346 2.5 94.9127 3.7C94.5127 4.86667 94.096 6.3 93.6627 8C93.1294 10.0333 92.596 12.35 92.0627 14.95C91.5294 17.5167 91.0294 20.1333 90.5627 22.8C90.1294 25.4667 89.7794 27.9833 89.5127 30.35C89.246 32.6833 89.1127 34.65 89.1127 36.25C89.1127 36.9833 89.146 37.55 89.2127 37.95C89.2794 38.35 89.3627 38.7 89.4627 39C89.596 39.3333 89.7294 39.7833 89.8627 40.35C88.7294 40.35 87.8627 40.1667 87.2627 39.8C86.6627 39.4333 86.2627 38.8333 86.0627 38C85.8627 37.2 85.7627 36.1167 85.7627 34.75C85.7627 30.7833 86.2627 26.5333 87.2627 22C88.296 17.4333 89.4627 12.7 90.7627 7.8C89.796 9.03333 88.7794 10.6 87.7127 12.5C86.6794 14.3667 85.6294 16.4 84.5627 18.6C83.5294 20.7667 82.5294 22.95 81.5627 25.15C80.6294 27.3167 79.796 29.3333 79.0627 31.2C78.3294 33.0667 77.7627 34.6167 77.3627 35.85C77.1627 35.9167 77.0294 35.9667 76.9627 36C76.896 36.0333 76.7794 36.05 76.6127 36.05C75.7127 36.05 75.1127 35.5167 74.8127 34.45C74.546 33.3833 74.4127 31.8833 74.4127 29.95C74.4127 28.5833 74.446 26.9667 74.5127 25.1C74.6127 23.2 74.7127 21.25 74.8127 19.25C74.9127 17.25 74.996 15.3333 75.0627 13.5C75.1627 11.6333 75.2127 10.0333 75.2127 8.7C75.2127 8.03333 75.196 7.48333 75.1627 7.05C75.1627 6.61667 75.146 6.23333 75.1127 5.9C72.446 12.1 70.2127 17.4 68.4127 21.8C66.6127 26.1667 65.096 29.7167 63.8627 32.45C62.6627 35.1833 61.596 37.1833 60.6627 38.45C59.7294 39.7167 58.8127 40.35 57.9127 40.35ZM103.619 40.35C102.085 40.2167 101.135 39.8 100.769 39.1C100.402 38.4 100.219 37.5 100.219 36.4C100.219 35.2 100.469 33.7333 100.969 32C101.469 30.2333 102.085 28.3167 102.819 26.25C103.585 24.1833 104.352 22.1167 105.119 20.05C104.719 20.0833 104.285 20.1333 103.819 20.2C103.385 20.2333 102.835 20.3 102.169 20.4C101.502 20.4667 100.635 20.5833 99.5686 20.75C99.6352 19.8833 99.9519 19.2167 100.519 18.75C101.119 18.25 101.902 17.8833 102.869 17.65C103.835 17.4167 104.919 17.2833 106.119 17.25C107.052 14.6833 108.002 12.1833 108.969 9.75C109.969 7.28333 110.952 5.03333 111.919 3C111.585 2.96667 111.252 2.95 110.919 2.95C110.619 2.91666 110.302 2.9 109.969 2.9C107.835 2.9 106.185 3.11666 105.019 3.55C103.852 3.98333 103.052 4.65 102.619 5.55C102.185 6.45 101.969 7.6 101.969 9C101.969 9.73333 102.019 10.4167 102.119 11.05C102.219 11.65 102.385 12.2833 102.619 12.95C101.485 12.75 100.652 12.3167 100.119 11.65C99.5852 10.95 99.3186 10.0833 99.3186 9.05C99.3186 7.31667 99.9352 5.8 101.169 4.5C102.402 3.16667 104.052 2.13333 106.119 1.4C108.219 0.633332 110.535 0.249998 113.069 0.249998C114.835 0.249998 116.535 0.383332 118.169 0.649999C119.835 0.883331 121.452 0.999998 123.019 0.999998C123.719 0.999998 124.352 0.966665 124.919 0.899999C125.519 0.799998 126.119 0.666665 126.719 0.499998C125.485 1.9 124.452 2.83333 123.619 3.3C122.785 3.76666 121.935 4 121.069 4C120.302 4 119.302 3.9 118.069 3.7C116.869 3.46666 115.502 3.28333 113.969 3.15C113.535 4.25 113.052 5.58333 112.519 7.15C111.985 8.68333 111.435 10.3333 110.869 12.1C110.302 13.8333 109.735 15.5667 109.169 17.3C110.835 17.4 112.402 17.55 113.869 17.75C115.369 17.95 116.719 18.0667 117.919 18.1C117.652 18.5 117.335 18.8167 116.969 19.05C116.635 19.25 116.152 19.4 115.519 19.5C114.885 19.6 114.002 19.6833 112.869 19.75C111.769 19.7833 110.285 19.8167 108.419 19.85C108.219 20.55 107.969 21.3833 107.669 22.35C107.369 23.3167 107.102 24.2333 106.869 25.1C106.635 25.9667 106.452 26.6 106.319 27C105.585 29.5667 104.952 31.9667 104.419 34.2C103.919 36.4333 103.652 38.4833 103.619 40.35ZM6.345 80.784C6.11033 80.784 5.833 80.7413 5.513 80.656C5.21433 80.592 4.91567 80.464 4.617 80.272C4.31833 80.1013 4.073 79.8453 3.881 79.504C3.689 79.184 3.593 78.7573 3.593 78.224C3.593 77.4773 3.77433 76.496 4.137 75.28C4.49967 74.0427 4.91567 72.6773 5.385 71.184C5.74767 70.032 6.09967 68.8373 6.441 67.6C6.78233 66.3627 7.05967 65.1253 7.273 63.888C7.50767 62.6507 7.625 61.4667 7.625 60.336C7.625 59.5467 7.593 58.8107 7.529 58.128C7.48633 57.4453 7.32633 56.9013 7.049 56.496C6.793 56.0693 6.345 55.856 5.705 55.856C5.10767 55.856 4.59567 56.0373 4.169 56.4C3.76367 56.7413 3.42233 57.1893 3.145 57.744C2.889 58.2987 2.697 58.8853 2.569 59.504C2.46233 60.1227 2.409 60.6987 2.409 61.232C2.409 61.936 2.505 62.512 2.697 62.96C1.865 62.96 1.27833 62.736 0.937 62.288C0.595667 61.8187 0.425 61.2747 0.425 60.656C0.425 59.9947 0.574333 59.3333 0.873 58.672C1.193 58.0107 1.61967 57.4027 2.153 56.848C2.70767 56.272 3.337 55.8133 4.041 55.472C4.745 55.1307 5.49167 54.96 6.281 54.96C7.60367 54.96 8.585 55.4827 9.225 56.528C9.88633 57.552 10.217 58.928 10.217 60.656C10.217 62.2133 9.993 63.8667 9.545 65.616C9.11833 67.344 8.63833 69.0293 8.105 70.672C7.76367 71.7387 7.433 72.7627 7.113 73.744C6.81433 74.704 6.569 75.5893 6.377 76.4C6.185 77.2107 6.089 77.9253 6.089 78.544C6.089 78.9493 6.153 79.2587 6.281 79.472C6.409 79.6853 6.665 79.792 7.049 79.792C7.58233 79.792 8.169 79.536 8.809 79.024C9.47033 78.5333 10.1317 77.8613 10.793 77.008C11.4757 76.1547 12.1263 75.216 12.745 74.192C13.385 73.1467 13.961 72.08 14.473 70.992C15.0063 69.904 15.4437 68.8693 15.785 67.888C16.1477 66.9067 16.3717 66.064 16.457 65.36C17.161 65.36 17.6517 65.5413 17.929 65.904C18.2277 66.2667 18.377 66.608 18.377 66.928C18.377 67.2693 18.2383 67.792 17.961 68.496C17.6837 69.2 17.353 69.9893 16.969 70.864C16.649 71.632 16.3183 72.4533 15.977 73.328C15.657 74.2027 15.3797 75.0773 15.145 75.952C14.9317 76.8267 14.825 77.6587 14.825 78.448C14.825 78.8533 14.8783 79.1733 14.985 79.408C15.0917 79.664 15.337 79.792 15.721 79.792C16.3183 79.792 17.0117 79.4827 17.801 78.864C18.5903 78.2667 19.401 77.4453 20.233 76.4C21.0863 75.3333 21.9077 74.1387 22.697 72.816C23.5077 71.4933 24.233 70.1173 24.873 68.688C25.513 67.2373 26.025 65.8187 26.409 64.432C26.793 63.0453 26.985 61.7653 26.985 60.592C26.985 59.5253 26.825 58.7467 26.505 58.256C26.185 57.744 25.7583 57.4133 25.225 57.264C25.5237 56.752 25.833 56.3787 26.153 56.144C26.4943 55.9093 26.8037 55.792 27.081 55.792C27.529 55.792 27.9663 56.08 28.393 56.656C28.8197 57.232 29.033 58.128 29.033 59.344C29.033 60.5173 28.809 61.8507 28.361 63.344C27.9343 64.8373 27.3477 66.3947 26.601 68.016C25.8543 69.616 25.001 71.1733 24.041 72.688C23.081 74.2027 22.0783 75.568 21.033 76.784C19.9877 78 18.953 78.9707 17.929 79.696C16.905 80.4213 15.9557 80.784 15.081 80.784C14.6757 80.784 14.2597 80.6987 13.833 80.528C13.4063 80.3573 13.0437 80.0907 12.745 79.728C12.4677 79.3867 12.329 78.9387 12.329 78.384C12.329 78.064 12.3823 77.6587 12.489 77.168C12.617 76.656 12.777 76.1013 12.969 75.504C11.881 77.04 10.761 78.2987 9.609 79.28C8.47833 80.2827 7.39033 80.784 6.345 80.784ZM29.1923 79.504C28.5309 79.504 27.9763 79.28 27.5282 78.832C27.0589 78.4053 26.8242 77.744 26.8242 76.848C26.8242 76.08 26.9949 75.2587 27.3362 74.384C27.6776 73.488 28.1469 72.6133 28.7443 71.76C29.3416 70.8853 30.0136 70.096 30.7603 69.392C31.5283 68.6667 32.3283 68.0907 33.1603 67.664C34.0136 67.2373 34.8563 67.024 35.6883 67.024C36.5203 67.024 37.2136 67.248 37.7683 67.696C38.3229 68.1227 38.6003 68.6987 38.6003 69.424C38.6003 69.9573 38.4509 70.32 38.1523 70.512C37.8749 70.704 37.5016 70.8 37.0323 70.8C37.0749 70.6293 37.1069 70.448 37.1283 70.256C37.1709 70.0427 37.1923 69.8507 37.1923 69.68C37.1923 69.1893 37.0749 68.7733 36.8403 68.432C36.6056 68.0693 36.2003 67.888 35.6243 67.888C35.0269 67.888 34.4189 68.1013 33.8003 68.528C33.1816 68.9333 32.5843 69.488 32.0083 70.192C31.4323 70.8747 30.9203 71.6213 30.4723 72.432C30.0243 73.2427 29.6723 74.0427 29.4163 74.832C29.1603 75.6213 29.0323 76.3253 29.0323 76.944C29.0323 77.776 29.3203 78.192 29.8963 78.192C30.3869 78.192 30.9203 77.968 31.4963 77.52C32.0723 77.0507 32.6589 76.464 33.2563 75.76C33.8749 75.0347 34.4616 74.288 35.0163 73.52C35.5709 72.752 36.0616 72.048 36.4883 71.408C36.5736 71.28 36.6269 71.216 36.6483 71.216C36.7763 71.2373 36.9363 71.28 37.1283 71.344C37.3416 71.408 37.5229 71.4933 37.6723 71.6C37.8216 71.7067 37.8963 71.8453 37.8963 72.016C37.8963 72.208 37.8003 72.4747 37.6083 72.816C37.4163 73.136 37.2029 73.5093 36.9683 73.936C36.7336 74.3627 36.5203 74.8 36.3283 75.248C36.1363 75.6747 36.0403 76.08 36.0403 76.464C36.0403 76.784 36.1256 77.104 36.2963 77.424C36.4669 77.7227 36.7443 77.872 37.1283 77.872C37.7043 77.872 38.4616 77.456 39.4003 76.624C40.3389 75.7707 41.2883 74.5013 42.2483 72.816L42.5683 73.136C42.1203 74.288 41.5443 75.3013 40.8403 76.176C40.1363 77.0507 39.3789 77.7333 38.5683 78.224C37.7789 78.7147 37.0003 78.96 36.2323 78.96C35.4429 78.96 34.8563 78.7253 34.4723 78.256C34.1096 77.7867 33.9283 77.2747 33.9283 76.72C33.9283 76.592 33.9389 76.4533 33.9603 76.304C33.9816 76.1333 34.0029 75.9627 34.0243 75.792C33.1069 77.0293 32.2643 77.9573 31.4963 78.576C30.7496 79.1947 29.9816 79.504 29.1923 79.504ZM44.2498 78.96C43.3324 78.96 42.6711 78.64 42.2658 78C41.8818 77.3813 41.6898 76.6027 41.6898 75.664C41.6898 74.64 41.8818 73.424 42.2658 72.016C42.6498 70.608 43.1511 69.1253 43.7698 67.568C44.4098 66.0107 45.1031 64.496 45.8498 63.024C46.5964 61.5307 47.3431 60.176 48.0898 58.96C48.8364 57.744 49.5191 56.7733 50.1378 56.048C50.7778 55.3227 51.2791 54.96 51.6418 54.96C51.8764 54.96 52.0684 55.0987 52.2178 55.376C52.3671 55.632 52.4844 55.952 52.5698 56.336C52.6551 56.6987 52.6978 57.0293 52.6978 57.328C52.6978 57.904 52.5484 58.6613 52.2498 59.6C51.9724 60.5173 51.5671 61.552 51.0338 62.704C50.5218 63.8347 49.9031 64.9867 49.1778 66.16C48.4738 67.312 47.6951 68.4213 46.8418 69.488C46.0098 70.5547 45.1244 71.472 44.1858 72.24C44.0578 72.816 43.9511 73.3813 43.8658 73.936C43.8018 74.4693 43.7698 74.9813 43.7698 75.472C43.7698 77.1147 44.2391 77.936 45.1778 77.936C45.6898 77.936 46.2018 77.7227 46.7138 77.296C47.2471 76.848 47.7484 76.2827 48.2178 75.6C48.7084 74.9173 49.1351 74.192 49.4978 73.424C49.7111 72.3147 50.0311 71.1307 50.4578 69.872C50.8844 68.592 51.3751 67.312 51.9298 66.032C52.4844 64.752 53.0711 63.5253 53.6898 62.352C54.3084 61.1787 54.9164 60.1333 55.5138 59.216C56.1111 58.2987 56.6658 57.5733 57.1778 57.04C57.6898 56.5067 58.1058 56.24 58.4258 56.24C58.6604 56.24 58.8524 56.3787 59.0018 56.656C59.1511 56.912 59.2684 57.232 59.3538 57.616C59.4391 57.9787 59.4818 58.3093 59.4818 58.608C59.4818 59.312 59.3004 60.24 58.9378 61.392C58.5751 62.5227 58.0524 63.7387 57.3698 65.04C56.7084 66.3413 55.8978 67.632 54.9378 68.912C53.9991 70.1707 52.9431 71.28 51.7698 72.24C51.6418 72.816 51.5351 73.3813 51.4498 73.936C51.3858 74.4693 51.3538 74.9813 51.3538 75.472C51.3538 77.1147 51.8231 77.936 52.7618 77.936C53.3378 77.936 53.9031 77.68 54.4578 77.168C55.0338 76.656 55.5671 76.016 56.0578 75.248C56.5698 74.4587 57.0071 73.648 57.3698 72.816L57.8498 73.072C56.9964 74.8853 56.0684 76.3253 55.0658 77.392C54.0631 78.4373 52.9858 78.96 51.8338 78.96C50.8098 78.96 50.1058 78.576 49.7218 77.808C49.3378 77.04 49.1991 76.08 49.3058 74.928C48.5591 76.1867 47.7591 77.1787 46.9058 77.904C46.0738 78.608 45.1884 78.96 44.2498 78.96ZM44.4738 71.152C45.2204 70.4053 45.9458 69.552 46.6498 68.592C47.3538 67.6107 48.0044 66.5973 48.6018 65.552C49.2204 64.5067 49.7644 63.4933 50.2338 62.512C50.7031 61.5307 51.0658 60.656 51.3218 59.888C51.5778 59.0987 51.7058 58.4907 51.7058 58.064C51.7058 57.8507 51.6738 57.712 51.6098 57.648C51.5671 57.584 51.5244 57.552 51.4818 57.552C51.3111 57.552 51.0124 57.8293 50.5858 58.384C50.1804 58.9173 49.7004 59.6427 49.1458 60.56C48.5911 61.4773 48.0258 62.5227 47.4498 63.696C46.8738 64.8693 46.3191 66.096 45.7858 67.376C45.2738 68.656 44.8364 69.9147 44.4738 71.152ZM52.0578 71.152C52.9964 70.2133 53.8498 69.1787 54.6178 68.048C55.4071 66.9173 56.0898 65.7867 56.6658 64.656C57.2418 63.5253 57.6898 62.4907 58.0098 61.552C58.3298 60.6133 58.4897 59.8773 58.4897 59.344C58.4897 59.1307 58.4578 58.992 58.3938 58.928C58.3511 58.864 58.3084 58.832 58.2658 58.832C58.0524 58.832 57.6898 59.184 57.1778 59.888C56.6871 60.5707 56.1218 61.4987 55.4818 62.672C54.8631 63.8453 54.2444 65.168 53.6258 66.64C53.0284 68.112 52.5058 69.616 52.0578 71.152ZM67.2393 79.024C66.3219 79.024 65.6713 78.736 65.2873 78.16C64.9032 77.6053 64.7112 76.9227 64.7112 76.112C64.7112 75.4507 64.8179 74.768 65.0312 74.064C65.2446 73.36 65.5219 72.6987 65.8633 72.08C66.2259 71.4613 66.6206 70.96 67.0473 70.576C67.4953 70.192 67.9433 70 68.3913 70C68.4979 70 68.6046 70.0213 68.7113 70.064C68.8393 70.0853 68.9566 70.1173 69.0633 70.16C68.8713 70.3307 68.6366 70.6507 68.3593 71.12C68.1033 71.568 67.8579 72.0907 67.6233 72.688C67.3886 73.264 67.1859 73.84 67.0153 74.416C66.8659 74.992 66.7913 75.4827 66.7913 75.888C66.7913 76.528 66.8979 76.9973 67.1113 77.296C67.3246 77.5733 67.6019 77.712 67.9433 77.712C68.3913 77.712 68.9246 77.4773 69.5433 77.008C70.1619 76.5173 70.7699 75.8987 71.3673 75.152C70.7699 74.6613 70.3006 74.0213 69.9593 73.232C69.6393 72.4213 69.4793 71.6 69.4793 70.768C69.4793 70.064 69.5966 69.4027 69.8313 68.784C70.0873 68.1653 70.4499 67.6747 70.9193 67.312C71.3886 66.928 71.9539 66.736 72.6153 66.736C73.4899 66.736 74.0766 66.9707 74.3753 67.44C74.6739 67.9093 74.8233 68.496 74.8233 69.2C74.8233 70.032 74.6206 70.96 74.2153 71.984C73.8099 72.9867 73.2979 73.9573 72.6793 74.896C73.0633 75.1093 73.4686 75.216 73.8953 75.216C74.2366 75.216 74.6206 75.152 75.0473 75.024C75.4739 74.8747 75.8899 74.6293 76.2953 74.288C76.7219 73.9467 77.0633 73.488 77.3193 72.912L77.7033 73.232C77.2766 74.2347 76.6686 74.9493 75.8793 75.376C75.1113 75.7813 74.3753 75.984 73.6713 75.984C73.3939 75.984 73.1273 75.9627 72.8713 75.92C72.6153 75.856 72.3699 75.7707 72.1353 75.664C71.4099 76.624 70.6099 77.424 69.7352 78.064C68.8819 78.704 68.0499 79.024 67.2393 79.024ZM71.9433 74.32C72.4766 73.5307 72.9139 72.7093 73.2552 71.856C73.6179 70.9813 73.7993 70.16 73.7993 69.392C73.7993 68.7733 73.7033 68.3253 73.5113 68.048C73.3406 67.7493 73.1166 67.6 72.8393 67.6C72.4126 67.6 71.9753 67.9093 71.5273 68.528C71.0793 69.1467 70.8553 69.9253 70.8553 70.864C70.8553 71.4827 70.9406 72.112 71.1113 72.752C71.3033 73.3707 71.5806 73.8933 71.9433 74.32ZM76.3027 86.96C76.0894 86.96 75.8441 86.8853 75.5667 86.736C75.2894 86.608 75.0547 86.3413 74.8627 85.936C74.6494 85.5307 74.5427 84.9333 74.5427 84.144C74.5427 83.2053 74.7027 81.9787 75.0227 80.464C75.3427 78.9707 75.7801 77.3173 76.3347 75.504C76.8894 73.6907 77.5294 71.8347 78.2548 69.936C78.9801 68.016 79.7588 66.1707 80.5908 64.4C81.4441 62.608 82.3081 61.008 83.1828 59.6C84.0788 58.1707 84.9534 57.04 85.8068 56.208C86.6601 55.376 87.4708 54.96 88.2388 54.96C88.6868 54.96 88.9748 55.0987 89.1028 55.376C89.2521 55.6533 89.3268 55.984 89.3268 56.368C89.3268 57.2853 89.0708 58.288 88.5588 59.376C88.0681 60.464 87.4068 61.5627 86.5748 62.672C85.7428 63.76 84.8254 64.8053 83.8228 65.808C82.8201 66.7893 81.8068 67.632 80.7828 68.336C80.6761 68.592 80.5694 68.8587 80.4628 69.136C80.3774 69.392 80.2814 69.6587 80.1748 69.936C80.4094 69.9787 80.5908 70.1067 80.7188 70.32C80.8681 70.512 80.9534 70.7253 80.9748 70.96C81.1241 71.92 81.2841 72.784 81.4548 73.552C81.6254 74.2987 81.8814 74.8853 82.2228 75.312C82.5854 75.7387 83.0974 75.952 83.7588 75.952C84.5054 75.952 85.1348 75.6853 85.6468 75.152C86.1588 74.5973 86.7134 73.8187 87.3108 72.816L87.7908 73.136C87.2574 74.416 86.5748 75.344 85.7428 75.92C84.9321 76.496 84.2174 76.784 83.5988 76.784C83.2148 76.784 82.8094 76.688 82.3828 76.496C81.9774 76.304 81.5934 76.048 81.2308 75.728C81.2308 77.072 81.0814 78.4053 80.7828 79.728C80.5054 81.0507 80.1321 82.256 79.6628 83.344C79.1934 84.432 78.6708 85.3067 78.0948 85.968C77.5188 86.6293 76.9214 86.96 76.3027 86.96ZM77.1348 85.424C77.3694 85.424 77.6361 85.2107 77.9348 84.784C78.2334 84.3573 78.5214 83.792 78.7988 83.088C79.0974 82.4053 79.3641 81.648 79.5988 80.816C79.8334 79.984 80.0254 79.152 80.1748 78.32C80.3241 77.488 80.3988 76.7413 80.3988 76.08C80.3988 75.4187 80.3134 74.8213 80.1428 74.288C79.9721 73.7333 79.6948 73.0827 79.3108 72.336C78.7774 73.936 78.2974 75.4827 77.8708 76.976C77.4441 78.4693 77.1134 79.8133 76.8788 81.008C76.6441 82.2027 76.5267 83.1627 76.5267 83.888C76.5267 84.912 76.7294 85.424 77.1348 85.424ZM81.2948 67.024C82.6814 65.744 83.8761 64.464 84.8788 63.184C85.9028 61.8827 86.6921 60.7307 87.2468 59.728C87.8014 58.704 88.0788 57.9787 88.0788 57.552C88.0788 57.2533 87.9294 57.104 87.6308 57.104C87.0761 57.104 86.4468 57.5627 85.7428 58.48C85.0388 59.376 84.3028 60.5707 83.5348 62.064C82.7668 63.5573 82.0201 65.2107 81.2948 67.024ZM99.864 80.784C98.8827 80.6987 98.2747 80.432 98.04 79.984C97.8053 79.536 97.688 78.96 97.688 78.256C97.688 77.488 97.848 76.5493 98.168 75.44C98.488 74.3093 98.8827 73.0827 99.352 71.76C99.8427 70.4373 100.333 69.1147 100.824 67.792C100.568 67.8133 100.291 67.8453 99.992 67.888C99.7147 67.9093 99.3627 67.952 98.936 68.016C98.5093 68.0587 97.9547 68.1333 97.272 68.24C97.3147 67.6853 97.5173 67.2587 97.88 66.96C98.264 66.64 98.7653 66.4053 99.384 66.256C100.003 66.1067 100.696 66.0213 101.464 66C102.061 64.3573 102.669 62.7573 103.288 61.2C103.928 59.6213 104.557 58.1813 105.176 56.88C104.963 56.8587 104.749 56.848 104.536 56.848C104.344 56.8267 104.141 56.816 103.928 56.816C102.563 56.816 101.507 56.9547 100.76 57.232C100.013 57.5093 99.5013 57.936 99.224 58.512C98.9467 59.088 98.808 59.824 98.808 60.72C98.808 61.1893 98.84 61.6267 98.904 62.032C98.968 62.416 99.0747 62.8213 99.224 63.248C98.4987 63.12 97.9653 62.8427 97.624 62.416C97.2827 61.968 97.112 61.4133 97.112 60.752C97.112 59.6427 97.5067 58.672 98.296 57.84C99.0853 56.9867 100.141 56.3253 101.464 55.856C102.808 55.3653 104.291 55.12 105.912 55.12C107.043 55.12 108.131 55.2053 109.176 55.376C110.243 55.5253 111.277 55.6 112.28 55.6C112.728 55.6 113.133 55.5787 113.496 55.536C113.88 55.472 114.264 55.3867 114.648 55.28C113.859 56.176 113.197 56.7733 112.664 57.072C112.131 57.3707 111.587 57.52 111.032 57.52C110.541 57.52 109.901 57.456 109.112 57.328C108.344 57.1787 107.469 57.0613 106.488 56.976C106.211 57.68 105.901 58.5333 105.56 59.536C105.219 60.5173 104.867 61.5733 104.504 62.704C104.141 63.8133 103.779 64.9227 103.416 66.032C104.483 66.096 105.485 66.192 106.424 66.32C107.384 66.448 108.248 66.5227 109.016 66.544C108.845 66.8 108.643 67.0027 108.408 67.152C108.195 67.28 107.885 67.376 107.48 67.44C107.075 67.504 106.509 67.5573 105.784 67.6C105.08 67.6213 104.131 67.6427 102.936 67.664C102.808 68.112 102.648 68.6453 102.456 69.264C102.264 69.8827 102.093 70.4693 101.944 71.024C101.795 71.5787 101.677 71.984 101.592 72.24C101.123 73.8827 100.717 75.4187 100.376 76.848C100.056 78.2773 99.8853 79.5893 99.864 80.784ZM110.63 79.504C109.968 79.504 109.414 79.28 108.966 78.832C108.496 78.4053 108.262 77.744 108.262 76.848C108.262 76.08 108.432 75.2587 108.774 74.384C109.115 73.488 109.584 72.6133 110.182 71.76C110.779 70.8853 111.451 70.096 112.198 69.392C112.966 68.6667 113.766 68.0907 114.598 67.664C115.451 67.2373 116.294 67.024 117.126 67.024C117.958 67.024 118.651 67.248 119.206 67.696C119.76 68.1227 120.038 68.6987 120.038 69.424C120.038 69.9573 119.888 70.32 119.59 70.512C119.312 70.704 118.939 70.8 118.47 70.8C118.512 70.6293 118.544 70.448 118.566 70.256C118.608 70.0427 118.63 69.8507 118.63 69.68C118.63 69.1893 118.512 68.7733 118.278 68.432C118.043 68.0693 117.638 67.888 117.062 67.888C116.464 67.888 115.856 68.1013 115.238 68.528C114.619 68.9333 114.022 69.488 113.446 70.192C112.87 70.8747 112.358 71.6213 111.91 72.432C111.462 73.2427 111.11 74.0427 110.854 74.832C110.598 75.6213 110.47 76.3253 110.47 76.944C110.47 77.776 110.758 78.192 111.334 78.192C111.824 78.192 112.358 77.968 112.934 77.52C113.51 77.0507 114.096 76.464 114.694 75.76C115.312 75.0347 115.899 74.288 116.454 73.52C117.008 72.752 117.499 72.048 117.926 71.408C118.011 71.28 118.064 71.216 118.086 71.216C118.214 71.2373 118.374 71.28 118.566 71.344C118.779 71.408 118.96 71.4933 119.11 71.6C119.259 71.7067 119.334 71.8453 119.334 72.016C119.334 72.208 119.238 72.4747 119.046 72.816C118.854 73.136 118.64 73.5093 118.406 73.936C118.171 74.3627 117.958 74.8 117.766 75.248C117.574 75.6747 117.478 76.08 117.478 76.464C117.478 76.784 117.563 77.104 117.734 77.424C117.904 77.7227 118.182 77.872 118.566 77.872C119.142 77.872 119.899 77.456 120.838 76.624C121.776 75.7707 122.726 74.5013 123.686 72.816L124.006 73.136C123.558 74.288 122.982 75.3013 122.278 76.176C121.574 77.0507 120.816 77.7333 120.006 78.224C119.216 78.7147 118.438 78.96 117.67 78.96C116.88 78.96 116.294 78.7253 115.91 78.256C115.547 77.7867 115.366 77.2747 115.366 76.72C115.366 76.592 115.376 76.4533 115.398 76.304C115.419 76.1333 115.44 75.9627 115.462 75.792C114.544 77.0293 113.702 77.9573 112.934 78.576C112.187 79.1947 111.419 79.504 110.63 79.504ZM139.159 78.992C138.413 78.992 137.869 78.7573 137.527 78.288C137.186 77.84 137.015 77.296 137.015 76.656C137.015 76.1227 137.09 75.5893 137.239 75.056C137.41 74.5227 137.57 74 137.719 73.488C137.89 72.976 137.975 72.5173 137.975 72.112C137.975 71.6853 137.879 71.3867 137.687 71.216C137.495 71.0453 137.282 70.96 137.047 70.96C136.514 70.96 135.927 71.376 135.287 72.208C134.669 73.04 133.858 74.2133 132.855 75.728C132.514 76.24 132.226 76.7627 131.991 77.296C131.757 77.808 131.533 78.2773 131.319 78.704C131.149 78.704 130.935 78.6827 130.679 78.64C130.423 78.5973 130.189 78.5227 129.975 78.416C129.783 78.3307 129.687 78.2133 129.687 78.064C129.687 77.9147 129.783 77.5627 129.975 77.008C130.189 76.432 130.423 75.7707 130.679 75.024C130.957 74.256 131.191 73.488 131.383 72.72C131.597 71.9307 131.703 71.2587 131.703 70.704C131.703 70.3413 131.639 70.0533 131.511 69.84C131.405 69.6053 131.202 69.488 130.903 69.488C130.434 69.488 129.869 69.776 129.207 70.352C128.546 70.9067 127.863 71.6427 127.159 72.56C126.455 73.4773 125.783 74.4907 125.143 75.6C124.525 76.688 124.023 77.776 123.639 78.864C123.447 78.864 123.213 78.832 122.935 78.768C122.658 78.704 122.423 78.6187 122.231 78.512C122.018 78.4053 121.911 78.2987 121.911 78.192C121.911 78.064 122.029 77.6907 122.263 77.072C122.477 76.432 122.733 75.6747 123.031 74.8C123.309 73.904 123.554 72.9973 123.767 72.08C124.002 71.1627 124.119 70.352 124.119 69.648C124.247 69.4987 124.45 69.3493 124.727 69.2C125.005 69.0507 125.293 68.976 125.591 68.976C125.89 68.976 126.103 69.0507 126.231 69.2C126.381 69.3493 126.455 69.552 126.455 69.808C126.455 70.0853 126.37 70.5653 126.199 71.248C126.05 71.9093 125.858 72.6453 125.623 73.456C126.05 72.7733 126.53 72.08 127.063 71.376C127.618 70.6507 128.194 69.9893 128.791 69.392C129.389 68.7947 129.986 68.3147 130.583 67.952C131.202 67.568 131.799 67.376 132.375 67.376C133.037 67.376 133.485 67.6213 133.719 68.112C133.975 68.5813 134.103 69.1467 134.103 69.808C134.103 70.3413 134.039 70.9067 133.911 71.504C133.805 72.08 133.677 72.624 133.527 73.136C133.378 73.6267 133.239 74.0213 133.111 74.32C133.559 73.5093 134.05 72.7307 134.583 71.984C135.138 71.216 135.735 70.5973 136.375 70.128C137.015 69.6373 137.698 69.392 138.423 69.392C139.106 69.392 139.575 69.5947 139.831 70C140.109 70.4053 140.247 70.8853 140.247 71.44C140.247 71.9947 140.151 72.6027 139.959 73.264C139.767 73.9253 139.565 74.5653 139.351 75.184C139.159 75.8027 139.063 76.336 139.063 76.784C139.063 77.0613 139.127 77.3173 139.255 77.552C139.405 77.7653 139.661 77.872 140.023 77.872C140.621 77.872 141.175 77.6053 141.687 77.072C142.221 76.5173 142.711 75.856 143.159 75.088C143.607 74.2987 143.991 73.5413 144.311 72.816L144.695 73.264C144.354 74.16 143.917 75.056 143.383 75.952C142.85 76.8267 142.221 77.552 141.495 78.128C140.791 78.704 140.013 78.992 139.159 78.992ZM147.175 79.408C145.873 79.408 144.892 79.0453 144.231 78.32C143.591 77.616 143.271 76.7413 143.271 75.696C143.271 74.736 143.505 73.7227 143.975 72.656C144.465 71.5893 145.105 70.5867 145.895 69.648C146.705 68.7093 147.591 67.952 148.551 67.376C149.511 66.7787 150.46 66.48 151.399 66.48C151.889 66.48 152.337 66.608 152.743 66.864C153.169 67.12 153.383 67.6427 153.383 68.432C153.383 69.2427 153.137 70.0107 152.647 70.736C152.177 71.44 151.548 72.0693 150.759 72.624C149.991 73.1787 149.137 73.6373 148.199 74C147.281 74.3413 146.364 74.5547 145.447 74.64C145.404 74.8533 145.372 75.056 145.351 75.248C145.329 75.44 145.319 75.6213 145.319 75.792C145.319 76.112 145.351 76.432 145.415 76.752C145.5 77.072 145.639 77.3707 145.831 77.648C146.023 77.904 146.279 78.1067 146.599 78.256C146.94 78.4053 147.356 78.48 147.847 78.48C148.764 78.48 149.671 78.224 150.567 77.712C151.463 77.1787 152.295 76.4853 153.063 75.632C153.831 74.7787 154.481 73.84 155.015 72.816L155.399 73.104C154.823 74.384 154.087 75.4933 153.191 76.432C152.316 77.3707 151.356 78.096 150.311 78.608C149.287 79.1413 148.241 79.408 147.175 79.408ZM145.607 74.032C146.183 73.84 146.833 73.5627 147.559 73.2C148.284 72.816 148.977 72.368 149.639 71.856C150.321 71.344 150.876 70.7787 151.303 70.16C151.751 69.5413 151.975 68.8907 151.975 68.208C151.975 67.9733 151.932 67.792 151.847 67.664C151.761 67.536 151.58 67.472 151.303 67.472C150.791 67.472 150.247 67.6747 149.671 68.08C149.095 68.464 148.54 68.976 148.007 69.616C147.473 70.256 146.993 70.96 146.567 71.728C146.14 72.496 145.82 73.264 145.607 74.032Z" fill="white"/>
</svg>
