<svg width="95" height="34" viewBox="0 0 95 34" fill="none" xmlns="http://www.w3.org/2000/svg">
<mask id="mask0_18_657" style="mask-type:luminance" maskUnits="userSpaceOnUse" x="73" y="0" width="22" height="22">
<path d="M94.215 0.5H73.1495V21.5183H94.215V0.5Z" fill="white"/>
</mask>
<g mask="url(#mask0_18_657)">
<mask id="mask1_18_657" style="mask-type:luminance" maskUnits="userSpaceOnUse" x="73" y="0" width="22" height="22">
<path d="M74.5565 1.90382C72.6838 3.77233 72.6838 6.80507 74.5565 8.67358L86.0329 20.1194C87.9056 21.9879 90.9451 21.9879 92.8178 20.1194C94.6905 18.2509 94.6905 15.2182 92.8178 13.3496L81.3415 1.90382C79.4688 0.0353141 76.4292 0.0353141 74.5565 1.90382Z" fill="white"/>
</mask>
<g mask="url(#mask1_18_657)">
<path d="M94.6853 0.0302734H72.6835V21.9829H94.6853V0.0302734Z" fill="url(#paint0_linear_18_657)"/>
</g>
</g>
<mask id="mask2_18_657" style="mask-type:luminance" maskUnits="userSpaceOnUse" x="73" y="11" width="22" height="22">
<path d="M94.162 11.9026H73.0964V32.9209H94.162V11.9026Z" fill="white"/>
</mask>
<g mask="url(#mask2_18_657)">
<mask id="mask3_18_657" style="mask-type:luminance" maskUnits="userSpaceOnUse" x="73" y="11" width="22" height="22">
<path d="M74.5035 31.522C76.3762 33.3905 79.4157 33.3905 81.2884 31.522L92.7599 20.0762C94.6326 18.2077 94.6326 15.1749 92.7599 13.3064C90.8872 11.4379 87.8477 11.4379 85.975 13.3064L74.5035 24.7522C72.6308 26.6207 72.6308 29.6487 74.5035 31.522Z" fill="white"/>
</mask>
<g mask="url(#mask3_18_657)">
<path d="M94.6279 11.4379H72.626V33.3905H94.6279V11.4379Z" fill="url(#paint1_linear_18_657)"/>
</g>
</g>
<mask id="mask4_18_657" style="mask-type:luminance" maskUnits="userSpaceOnUse" x="55" y="11" width="22" height="22">
<path d="M76.2466 11.9026H55.1811V32.9209H76.2466V11.9026Z" fill="white"/>
</mask>
<g mask="url(#mask4_18_657)">
<mask id="mask5_18_657" style="mask-type:luminance" maskUnits="userSpaceOnUse" x="55" y="11" width="22" height="22">
<path d="M56.5831 31.522C54.7104 29.6535 54.7104 26.6255 56.5831 24.7522L68.0595 13.3064C69.9322 11.4379 72.9669 11.4379 74.8444 13.3064C76.7171 15.1749 76.7171 18.2077 74.8444 20.0762L63.3729 31.522C61.5002 33.3905 58.4607 33.3905 56.5879 31.522" fill="white"/>
</mask>
<g mask="url(#mask5_18_657)">
<path d="M76.7122 11.4379H54.7103V33.3905H76.7122V11.4379Z" fill="url(#paint2_linear_18_657)"/>
</g>
</g>
<mask id="mask6_18_657" style="mask-type:luminance" maskUnits="userSpaceOnUse" x="55" y="0" width="22" height="22">
<path d="M76.189 0.5H55.1235V21.5183H76.189V0.5Z" fill="white"/>
</mask>
<g mask="url(#mask6_18_657)">
<mask id="mask7_18_657" style="mask-type:luminance" maskUnits="userSpaceOnUse" x="55" y="0" width="22" height="22">
<path d="M56.5305 1.90382C58.4032 0.0353141 61.4427 0.0353141 63.3154 1.90382L74.7869 13.3496C76.6596 15.2182 76.6596 18.2509 74.7869 20.1194C72.9142 21.9879 69.8747 21.9879 68.0068 20.1194L56.5305 8.67358C54.6578 6.80507 54.6578 3.77233 56.5305 1.90382Z" fill="white"/>
</mask>
<g mask="url(#mask7_18_657)">
<path d="M76.6596 0.0302734H54.6577V21.9829H76.6596V0.0302734Z" fill="url(#paint3_linear_18_657)"/>
</g>
</g>
<path d="M0 9.80625V0.636597H7.38149V2.60334H2.16222V4.18245H6.39432V6.08565H2.16222V7.83951H7.38149V9.80625H0Z" fill="white"/>
<path d="M19.1414 4.38582V8.66246C18.2912 9.35193 16.5875 9.94291 15.18 9.94291C12.4637 9.94291 10.2856 8.18904 10.2856 5.23416C10.2856 2.27928 12.4637 0.5 15.18 0.5C16.6671 0.5 17.8709 0.998835 18.788 1.72643L17.7467 3.43899C17.0556 2.89885 16.2468 2.59065 15.231 2.59065C13.7566 2.59065 12.6357 3.54702 12.6357 5.23416C12.6357 6.9213 13.7566 7.85225 15.3265 7.85225C15.922 7.85225 16.5175 7.70292 16.9888 7.46144V6.11427H14.7852V4.389H19.1383L19.1414 4.38582Z" fill="white"/>
<path d="M24.9149 6.27311L21.412 0.795461V0.636597H23.9532L26.0486 4.18245L28.1598 0.636597H30.6851V0.795461L27.1854 6.2604V9.80625H24.9149V6.27311Z" fill="white"/>
<path d="M33.497 0.636597H38.0667C39.8913 0.636597 41.4581 1.70099 41.4581 4.0363C41.4581 6.12695 39.8913 7.38198 38.0667 7.38198H35.7675V9.80943H33.497V0.636597ZM35.7675 2.60652V5.41206H37.7004C38.4965 5.41206 39.1048 4.85921 39.1048 4.02359C39.1048 3.13394 38.4965 2.60652 37.7004 2.60652H35.7675Z" fill="white"/>
<path d="M48.9891 2.902V9.80625H46.7186V2.902H43.8941V0.636597H51.7341V2.902H48.9891Z" fill="white"/>
<path d="M8.27954 15.6779L5.50909 18.9982H5.11741L2.3597 15.6779V21.2922H0.0892105V12.1194H2.04763L5.31803 15.948L8.59161 12.1194H10.55V21.2922H8.27954V15.6779Z" fill="white"/>
<path d="M14.2948 21.2922V12.1194H21.6763V14.0893H16.457V15.6652H20.6891V17.5684H16.457V19.3223H21.6763V21.2922H14.2948Z" fill="white"/>
<path d="M24.9625 12.1194H29.0863C31.8027 12.1321 33.8311 13.7366 33.8311 16.7201C33.8311 19.7036 31.8027 21.2922 29.0863 21.2922H24.9625V12.1194ZM27.233 14.0893V19.3223H28.9908C30.4779 19.3223 31.4906 18.3914 31.4906 16.7201C31.4906 15.0488 30.4779 14.0893 28.9908 14.0893H27.233Z" fill="white"/>
<path d="M39.3435 12.1194H37.073V21.2922H39.3435V12.1194Z" fill="white"/>
<path d="M45.4958 12.1194H48.158L51.645 21.2922H49.3458L48.7249 19.6051H44.8717L44.2348 21.2922H41.9357L45.4927 12.1194H45.4958ZM45.4417 17.9465H48.158L46.8333 14.3594L45.4417 17.9465Z" fill="white"/>
<path d="M2.17495 29.7786V32.7748H0.0127258V23.6019H7.12354V25.5846H2.17495V27.796H6.39431V29.7786H2.17495Z" fill="white"/>
<path d="M13.0594 23.4656C15.7757 23.4656 17.8042 25.4895 17.8042 28.1997C17.8042 30.91 15.7757 32.9085 13.0594 32.9085C10.3431 32.9085 8.34007 30.8846 8.34007 28.1997C8.34007 25.5149 10.3685 23.4656 13.0594 23.4656ZM13.0721 30.7765C14.5592 30.7765 15.5719 29.6581 15.5719 28.1997C15.5719 26.7414 14.5592 25.6102 13.0721 25.6102C11.585 25.6102 10.5724 26.7159 10.5724 28.1997C10.5724 29.6835 11.6264 30.7765 13.0721 30.7765Z" fill="white"/>
<path d="M19.804 23.6021H24.1699C25.9532 23.6021 27.6982 24.479 27.6982 26.6237C27.6982 28.0662 26.6856 29.1051 25.2908 29.3879C26.1156 30.1441 26.9276 30.9511 27.7778 30.9511C28.074 30.9511 28.4657 30.8971 28.7523 30.7764L28.9688 32.5557C28.5899 32.7431 28.0358 32.9052 27.4148 32.9052C25.3067 32.9052 23.7655 30.2871 22.5618 29.4642H22.0745V32.7685H19.804V23.5957V23.6021ZM22.0745 25.572V27.8374H24.1285C24.8705 27.8374 25.3449 27.3799 25.3449 26.7031C25.3449 26.0263 24.8705 25.5688 24.1285 25.5688H22.0745V25.572Z" fill="white"/>
<path d="M32.5257 28.6888C32.5257 30.0105 33.2008 30.8207 34.5128 30.8207C35.8248 30.8207 36.5413 29.9851 36.5413 28.6888V23.6019H38.8118V28.8349C38.8118 31.0336 37.296 32.9209 34.5128 32.9209C31.7296 32.9209 30.2552 31.2084 30.2552 28.8349V23.6019H32.5257V28.6888Z" fill="white"/>
<path d="M49.4478 27.1637L46.6773 30.4808H46.2856L43.5279 27.1637V32.7748H41.2574V23.6019H43.2158L46.4894 27.4337L49.7598 23.6019H51.7214V32.7748H49.4478V27.1637Z" fill="white"/>
<defs>
<linearGradient id="paint0_linear_18_657" x1="93.8564" y1="12.1258" x2="72.7909" y2="12.1258" gradientUnits="userSpaceOnUse">
<stop stop-color="#C6C3E0"/>
<stop offset="0.13" stop-color="#BFB9DA"/>
<stop offset="0.34" stop-color="#AFA0CD"/>
<stop offset="0.61" stop-color="#9477B6"/>
<stop offset="0.92" stop-color="#6F3E97"/>
<stop offset="1" stop-color="#652F8F"/>
</linearGradient>
<linearGradient id="paint1_linear_18_657" x1="93.799" y1="23.5286" x2="72.7335" y2="23.5286" gradientUnits="userSpaceOnUse">
<stop stop-color="#FAAF42"/>
<stop offset="0.34" stop-color="#F58454"/>
<stop offset="1" stop-color="#EB2B7B"/>
</linearGradient>
<linearGradient id="paint2_linear_18_657" x1="55.4838" y1="23.5286" x2="76.5493" y2="23.5286" gradientUnits="userSpaceOnUse">
<stop stop-color="#C6C3E0"/>
<stop offset="0.13" stop-color="#BFB9DA"/>
<stop offset="0.34" stop-color="#AFA0CD"/>
<stop offset="0.61" stop-color="#9477B6"/>
<stop offset="0.92" stop-color="#6F3E97"/>
<stop offset="1" stop-color="#652F8F"/>
</linearGradient>
<linearGradient id="paint3_linear_18_657" x1="55.4312" y1="12.1258" x2="76.4967" y2="12.1258" gradientUnits="userSpaceOnUse">
<stop stop-color="#FAAF42"/>
<stop offset="0.34" stop-color="#F58454"/>
<stop offset="1" stop-color="#EB2B7B"/>
</linearGradient>
</defs>
</svg>
