<svg width="134" height="153" viewBox="0 0 134 153" fill="none" xmlns="http://www.w3.org/2000/svg">
<g id="Logo / en">
<g id="Sympol">
<g id="Clip path group">
<mask id="mask0_21_1611" style="mask-type:luminance" maskUnits="userSpaceOnUse" x="64" y="0" width="37" height="36">
<g id="clippath">
<path id="Vector" d="M100.57 0H64.3853V35.9802H100.57V0Z" fill="white"/>
</g>
</mask>
<g mask="url(#mask0_21_1611)">
<g id="Group">
<g id="Clip path group_2">
<mask id="mask1_21_1611" style="mask-type:luminance" maskUnits="userSpaceOnUse" x="64" y="0" width="37" height="36">
<g id="clippath-1">
<path id="Vector_2" d="M66.802 2.40311C63.5852 5.60171 63.5852 10.7933 66.802 13.9919L86.5152 33.5854C89.732 36.784 94.9531 36.784 98.1699 33.5854C101.387 30.3868 101.387 25.1952 98.1699 21.9966L78.4567 2.40311C75.2399 -0.795501 70.0188 -0.795501 66.802 2.40311Z" fill="white"/>
</g>
</mask>
<g mask="url(#mask1_21_1611)">
<g id="Group_2">
<path id="Vector_3" d="M101.378 -0.803711H63.5852V36.7758H101.378V-0.803711Z" fill="url(#paint0_linear_21_1611)"/>
</g>
</g>
</g>
</g>
</g>
</g>
<g id="Clip path group_3">
<mask id="mask2_21_1611" style="mask-type:luminance" maskUnits="userSpaceOnUse" x="64" y="19" width="37" height="37">
<g id="clippath-2">
<path id="Vector_4" d="M100.479 19.5198H64.2945V55.5H100.479V19.5198Z" fill="white"/>
</g>
</mask>
<g mask="url(#mask2_21_1611)">
<g id="Group_3">
<g id="Clip path group_4">
<mask id="mask3_21_1611" style="mask-type:luminance" maskUnits="userSpaceOnUse" x="64" y="19" width="37" height="37">
<g id="clippath-3">
<path id="Vector_5" d="M66.7112 53.1052C69.928 56.3038 75.1491 56.3038 78.3659 53.1052L98.0708 33.5117C101.288 30.3131 101.288 25.1215 98.0708 21.9229C94.854 18.7243 89.6329 18.7243 86.4161 21.9229L66.7112 41.5164C63.4944 44.715 63.4944 49.8984 66.7112 53.1052Z" fill="white"/>
</g>
</mask>
<g mask="url(#mask3_21_1611)">
<g id="Group_4">
<path id="Vector_6" d="M101.279 18.7244H63.4862V56.3039H101.279V18.7244Z" fill="url(#paint1_linear_21_1611)"/>
</g>
</g>
</g>
</g>
</g>
</g>
<g id="Clip path group_5">
<mask id="mask4_21_1611" style="mask-type:luminance" maskUnits="userSpaceOnUse" x="33" y="19" width="37" height="37">
<g id="clippath-4">
<path id="Vector_7" d="M69.7053 19.5198H33.5205V55.5H69.7053V19.5198Z" fill="white"/>
</g>
</mask>
<g mask="url(#mask4_21_1611)">
<g id="Group_5">
<g id="Clip path group_6">
<mask id="mask5_21_1611" style="mask-type:luminance" maskUnits="userSpaceOnUse" x="33" y="19" width="37" height="37">
<g id="clippath-5">
<path id="Vector_8" d="M35.929 53.1052C32.7122 49.9066 32.7122 44.7232 35.929 41.5164L55.6421 21.9229C58.8589 18.7243 64.0718 18.7243 67.2968 21.9229C70.5136 25.1215 70.5136 30.3131 67.2968 33.5117L47.5919 53.1052C44.3751 56.3038 39.154 56.3038 35.9372 53.1052" fill="white"/>
</g>
</mask>
<g mask="url(#mask5_21_1611)">
<g id="Group_6">
<path id="Vector_9" d="M70.5053 18.7244H32.7122V56.3039H70.5053V18.7244Z" fill="url(#paint2_linear_21_1611)"/>
</g>
</g>
</g>
</g>
</g>
</g>
<g id="Clip path group_7">
<mask id="mask6_21_1611" style="mask-type:luminance" maskUnits="userSpaceOnUse" x="33" y="0" width="37" height="36">
<g id="clippath-6">
<path id="Vector_10" d="M69.6064 0H33.4216V35.9802H69.6064V0Z" fill="white"/>
</g>
</mask>
<g mask="url(#mask6_21_1611)">
<g id="Group_7">
<g id="Clip path group_8">
<mask id="mask7_21_1611" style="mask-type:luminance" maskUnits="userSpaceOnUse" x="33" y="0" width="37" height="36">
<g id="clippath-7">
<path id="Vector_11" d="M35.8383 2.40311C39.0551 -0.795501 44.2762 -0.795501 47.493 2.40311L67.1979 21.9966C70.4147 25.1952 70.4147 30.3868 67.1979 33.5854C63.9811 36.784 58.76 36.784 55.5515 33.5854L35.8383 13.9919C32.6216 10.7933 32.6216 5.60171 35.8383 2.40311Z" fill="white"/>
</g>
</mask>
<g mask="url(#mask7_21_1611)">
<g id="Group_8">
<path id="Vector_12" d="M70.4147 -0.803711H32.6216V36.7758H70.4147V-0.803711Z" fill="url(#paint3_linear_21_1611)"/>
</g>
</g>
</g>
</g>
</g>
</g>
</g>
<g id="Egypt">
<path id="Vector_13" d="M0 93.3335V69.6638H19.1193V74.7406H5.60051V78.8168H16.5623V83.7295H5.60051V88.2567H19.1193V93.3335H0Z" fill="white"/>
<path id="Vector_14" d="M49.5798 79.3418V90.3811C47.3776 92.1608 42.9648 93.6863 39.3191 93.6863C32.2834 93.6863 26.6417 89.159 26.6417 81.5316C26.6417 73.9042 32.2834 69.3113 39.3191 69.3113C43.171 69.3113 46.2888 70.5989 48.6643 72.4771L45.9671 76.8977C44.1773 75.5035 42.0823 74.7079 39.4511 74.7079C35.6322 74.7079 32.7288 77.1766 32.7288 81.5316C32.7288 85.8866 35.6322 88.2897 39.6985 88.2897C41.2409 88.2897 42.7833 87.9042 44.0041 87.2809V83.8034H38.2963V79.35H49.5716L49.5798 79.3418Z" fill="white"/>
<path id="Vector_15" d="M64.5337 84.2134L55.4608 70.0739V69.6638H62.0428L67.4701 78.8168L72.9386 69.6638H79.4795V70.0739L70.4147 84.1806V93.3335H64.5337V84.2134Z" fill="white"/>
<path id="Vector_16" d="M86.7625 69.6638H98.5987C103.325 69.6638 107.383 72.4113 107.383 78.4395C107.383 83.8361 103.325 87.0757 98.5987 87.0757H92.6435V93.3417H86.7625V69.6638ZM92.6435 74.7488V81.9908H97.6501C99.7122 81.9908 101.288 80.5637 101.288 78.4067C101.288 76.1102 99.7122 74.7488 97.6501 74.7488H92.6435Z" fill="white"/>
<path id="Vector_17" d="M126.89 75.5115V93.3335H121.009V75.5115H113.693V69.6638H134V75.5115H126.89Z" fill="white"/>
</g>
<g id="Media">
<path id="Vector_18" d="M21.4453 108.49L14.2694 117.061H13.2549L6.11194 108.49V122.982H0.230988V99.3044H5.30362L13.7745 109.187L22.2536 99.3044H27.3263V122.982H21.4453V108.49Z" fill="white"/>
<path id="Vector_19" d="M37.026 122.982V99.3044H56.1453V104.389H42.6265V108.457H53.5883V113.37H42.6265V117.897H56.1453V122.982H37.026Z" fill="white"/>
<path id="Vector_20" d="M64.6574 99.3044H75.3388C82.3745 99.3372 87.6286 103.479 87.6286 111.18C87.6286 118.882 82.3745 122.982 75.3388 122.982H64.6574V99.3044ZM70.5384 104.389V117.897H75.0914C78.9433 117.897 81.5662 115.494 81.5662 111.18C81.5662 106.866 78.9433 104.389 75.0914 104.389H70.5384Z" fill="white"/>
<path id="Vector_21" d="M101.906 99.3044H96.0253V122.982H101.906V99.3044Z" fill="white"/>
<path id="Vector_22" d="M117.842 99.3044H124.737L133.769 122.982H127.814L126.205 118.627H116.225L114.575 122.982H108.62L117.833 99.3044H117.842ZM117.701 114.346H124.737L121.306 105.087L117.701 114.346Z" fill="white"/>
</g>
<g id="Forum">
<path id="Vector_23" d="M5.63353 144.889V152.623H0.03302V128.945H18.4512V134.063H5.63353V139.771H16.5624V144.889H5.63353Z" fill="white"/>
<path id="Vector_24" d="M33.8257 128.592C40.8614 128.592 46.1155 133.817 46.1155 140.813C46.1155 147.809 40.8614 152.967 33.8257 152.967C26.79 152.967 21.6019 147.743 21.6019 140.813C21.6019 133.882 26.856 128.592 33.8257 128.592ZM33.8587 147.464C37.7106 147.464 40.3335 144.577 40.3335 140.813C40.3335 137.048 37.7106 134.128 33.8587 134.128C30.0068 134.128 27.3839 136.982 27.3839 140.813C27.3839 144.643 30.114 147.464 33.8587 147.464Z" fill="white"/>
<path id="Vector_25" d="M51.2954 128.945H62.6036C67.2226 128.945 71.7426 131.208 71.7426 136.745C71.7426 140.468 69.1197 143.15 65.507 143.88C67.6433 145.832 69.7466 147.915 71.9488 147.915C72.7159 147.915 73.7304 147.776 74.4728 147.464L75.0336 152.057C74.0521 152.541 72.6169 152.959 71.0085 152.959C65.5482 152.959 61.5561 146.201 58.4383 144.077H57.1763V152.606H51.2954V128.928V128.945ZM57.1763 134.03V139.878H62.4964C64.4182 139.878 65.6472 138.697 65.6472 136.95C65.6472 135.203 64.4182 134.022 62.4964 134.022H57.1763V134.03Z" fill="white"/>
<path id="Vector_26" d="M84.2469 142.076C84.2469 145.487 85.9955 147.579 89.3938 147.579C92.792 147.579 94.6479 145.422 94.6479 142.076V128.945H100.529V142.453C100.529 148.128 96.6027 153 89.3938 153C82.1849 153 78.366 148.579 78.366 142.453V128.945H84.2469V142.076Z" fill="white"/>
<path id="Vector_27" d="M128.078 138.139L120.902 146.701H119.887L112.744 138.139V152.623H106.863V128.945H111.936L120.415 138.836L128.886 128.945H133.967V152.623H128.078V138.139Z" fill="white"/>
</g>
</g>
<defs>
<linearGradient id="paint0_linear_21_1611" x1="99.9546" y1="19.9019" x2="63.7698" y2="19.9019" gradientUnits="userSpaceOnUse">
<stop stop-color="#C6C3E0"/>
<stop offset="0.13" stop-color="#BFB9DA"/>
<stop offset="0.34" stop-color="#AFA0CD"/>
<stop offset="0.61" stop-color="#9477B6"/>
<stop offset="0.92" stop-color="#6F3E97"/>
<stop offset="1" stop-color="#652F8F"/>
</linearGradient>
<linearGradient id="paint1_linear_21_1611" x1="99.8555" y1="39.4218" x2="63.6708" y2="39.4218" gradientUnits="userSpaceOnUse">
<stop stop-color="#FAAF42"/>
<stop offset="0.34" stop-color="#F58454"/>
<stop offset="1" stop-color="#EB2B7B"/>
</linearGradient>
<linearGradient id="paint2_linear_21_1611" x1="34.0409" y1="39.4218" x2="70.2257" y2="39.4218" gradientUnits="userSpaceOnUse">
<stop stop-color="#C6C3E0"/>
<stop offset="0.13" stop-color="#BFB9DA"/>
<stop offset="0.34" stop-color="#AFA0CD"/>
<stop offset="0.61" stop-color="#9477B6"/>
<stop offset="0.92" stop-color="#6F3E97"/>
<stop offset="1" stop-color="#652F8F"/>
</linearGradient>
<linearGradient id="paint3_linear_21_1611" x1="33.9503" y1="19.9019" x2="70.135" y2="19.9019" gradientUnits="userSpaceOnUse">
<stop stop-color="#FAAF42"/>
<stop offset="0.34" stop-color="#F58454"/>
<stop offset="1" stop-color="#EB2B7B"/>
</linearGradient>
</defs>
</svg>
